<?xml version="1.0" encoding="UTF-8" standalone="no"?>
<!-- Created with Inkscape (http://www.inkscape.org/) -->

<svg
   version="1.1"
   id="svg2"
   width="377.95276"
   height="377.95276"
   viewBox="0 0 377.95276 377.95276"
   sodipodi:docname="drohnfh.svg"
   inkscape:version="1.2.2 (b0a8486541, 2022-12-01)"
   xmlns:inkscape="http://www.inkscape.org/namespaces/inkscape"
   xmlns:sodipodi="http://sodipodi.sourceforge.net/DTD/sodipodi-0.dtd"
   xmlns="http://www.w3.org/2000/svg"
   xmlns:svg="http://www.w3.org/2000/svg">
  <defs
     id="defs6" />
  <sodipodi:namedview
     id="namedview4"
     pagecolor="#ffffff"
     bordercolor="#666666"
     borderopacity="1.0"
     inkscape:showpageshadow="2"
     inkscape:pageopacity="0.0"
     inkscape:pagecheckerboard="0"
     inkscape:deskcolor="#d1d1d1"
     showgrid="false"
     inkscape:zoom="2.8548542"
     inkscape:cx="228.03266"
     inkscape:cy="210.16835"
     inkscape:window-width="2560"
     inkscape:window-height="1371"
     inkscape:window-x="0"
     inkscape:window-y="32"
     inkscape:window-maximized="1"
     inkscape:current-layer="g10">
    <inkscape:page
       x="0"
       y="0"
       id="page8"
       width="377.95276"
       height="377.95276" />
  </sodipodi:namedview>
  <g
     id="g10"
     inkscape:groupmode="layer"
     inkscape:label="Page 1"
     transform="matrix(1.3333333,0,0,1.3333333,0,1.2115486e-5)">
    <g
       id="g12">
      <g
         id="g14">
        <path
           d="M 74.297,91.324 C 74.297,91.906 73.828,92.375 73.25,92.375 C 72.672,92.375 72.203,91.906 72.203,91.324 C 72.203,90.746 72.672,90.277 73.25,90.277 C 73.828,90.277 74.297,90.746 74.297,91.324 Z"
           style="fill:#000000;fill-opacity:1;fill-rule:nonzero;stroke:#000000;stroke-width:0.749999;stroke-linecap:butt;stroke-linejoin:miter;stroke-miterlimit:4;stroke-dasharray:none;stroke-opacity:1"
           id="path16" />
      </g>
      <g
         id="g18"
         transform="scale(-1,1)">
        <path
           d="M 0,141.73 H -141.73 V 283.464 H 0 Z"
           style="fill:#8bb31d;fill-opacity:1;fill-rule:nonzero;stroke:#8bb31d;stroke-width:2.00126;stroke-linecap:butt;stroke-linejoin:miter;stroke-miterlimit:4;stroke-dasharray:none;stroke-opacity:1"
           id="path20" />
      </g>
      <g
         id="g22">
        <path
           d="M 0,0 H 141.73 V 141.73 H 0 Z"
           style="fill:#00649c;fill-opacity:1;fill-rule:nonzero;stroke:#00649c;stroke-width:2.00126;stroke-linecap:butt;stroke-linejoin:miter;stroke-miterlimit:4;stroke-dasharray:none;stroke-opacity:1"
           id="path24" />
      </g>
      <path
         d="M 11.172,85.883 V 84.336 C 14.195,84.336 15.703,83.871 15.703,82.941 V 58.77 C 15.703,57.84 14.195,57.375 11.172,57.375 V 55.828 H 27.391 C 29.398,55.828 31.23,56.266 32.891,57.137 C 34.555,57.996 35.973,59.148 37.145,60.598 C 38.32,62.043 39.223,63.684 39.852,65.516 C 40.496,67.352 40.82,69.227 40.82,71.145 C 40.82,73.008 40.496,74.82 39.852,76.582 C 39.207,78.328 38.277,79.91 37.059,81.328 C 35.855,82.734 34.426,83.844 32.762,84.66 C 31.117,85.477 29.324,85.883 27.391,85.883 Z M 19.656,82.941 C 19.656,83.57 19.836,83.965 20.195,84.121 C 20.555,84.266 21.117,84.336 21.891,84.336 H 26.254 C 27.758,84.336 29.184,84.016 30.527,83.371 C 31.891,82.711 33.016,81.801 33.902,80.641 C 34.832,79.41 35.457,78.035 35.77,76.516 C 36.086,74.984 36.242,73.195 36.242,71.145 C 36.242,69.012 36.086,67.141 35.77,65.539 C 35.457,63.934 34.832,62.5 33.902,61.242 C 33.027,59.996 31.918,59.043 30.57,58.383 C 29.227,57.711 27.785,57.375 26.254,57.375 H 21.891 C 21.363,57.375 20.945,57.395 20.645,57.438 C 20.359,57.48 20.125,57.609 19.938,57.824 C 19.75,58.027 19.656,58.34 19.656,58.77 Z"
         style="fill:#ffffff;fill-opacity:1;fill-rule:nonzero;stroke:none"
         id="path26" />
      <path
         d="M 44.43,85.883 V 84.336 C 45.434,84.336 46.254,84.258 46.898,84.102 C 47.543,83.941 47.867,83.555 47.867,82.941 V 70.93 C 47.867,70.145 47.746,69.578 47.5,69.234 C 47.273,68.875 46.938,68.66 46.492,68.59 C 46.047,68.504 45.359,68.461 44.43,68.461 V 66.914 L 50.723,66.441 V 70.738 C 51.195,69.461 51.871,68.43 52.742,67.645 C 53.617,66.84 54.676,66.441 55.922,66.441 C 56.797,66.441 57.578,66.699 58.266,67.215 C 58.953,67.73 59.297,68.41 59.297,69.254 C 59.297,69.785 59.102,70.25 58.715,70.652 C 58.344,71.039 57.879,71.23 57.32,71.23 C 56.777,71.23 56.309,71.039 55.922,70.652 C 55.535,70.266 55.344,69.801 55.344,69.254 C 55.344,68.469 55.621,67.91 56.18,67.578 H 55.922 C 54.734,67.578 53.762,68.008 53,68.867 C 52.258,69.727 51.727,70.793 51.41,72.07 C 51.098,73.344 50.938,74.562 50.938,75.723 V 82.941 C 50.938,83.871 52.363,84.336 55.215,84.336 V 85.883 Z"
         style="fill:#ffffff;fill-opacity:1;fill-rule:nonzero;stroke:none"
         id="path28" />
      <path
         d="M 71.5,86.379 C 69.738,86.379 68.105,85.934 66.602,85.047 C 65.098,84.145 63.91,82.941 63.035,81.438 C 62.16,79.934 61.723,78.293 61.723,76.516 C 61.723,75.172 61.961,73.875 62.434,72.629 C 62.922,71.383 63.609,70.273 64.496,69.297 C 65.398,68.309 66.445,67.543 67.633,67 C 68.82,66.441 70.109,66.16 71.5,66.16 C 73.305,66.16 74.945,66.641 76.418,67.602 C 77.91,68.547 79.082,69.82 79.941,71.426 C 80.801,73.016 81.23,74.711 81.23,76.516 C 81.23,78.277 80.797,79.918 79.922,81.438 C 79.047,82.941 77.859,84.145 76.355,85.047 C 74.867,85.934 73.246,86.379 71.5,86.379 Z M 71.5,85.09 C 73.848,85.09 75.418,84.238 76.203,82.531 C 76.992,80.828 77.387,78.656 77.387,76.023 C 77.387,74.547 77.309,73.328 77.148,72.371 C 76.992,71.395 76.648,70.516 76.117,69.727 C 75.789,69.242 75.367,68.816 74.852,68.461 C 74.352,68.086 73.812,67.809 73.238,67.621 C 72.68,67.422 72.102,67.32 71.5,67.32 C 70.582,67.32 69.711,67.527 68.879,67.945 C 68.062,68.359 67.383,68.953 66.836,69.727 C 66.293,70.559 65.941,71.477 65.785,72.477 C 65.641,73.465 65.57,74.648 65.57,76.023 C 65.57,77.668 65.715,79.152 66,80.469 C 66.285,81.773 66.859,82.867 67.719,83.758 C 68.594,84.645 69.852,85.09 71.5,85.09 Z"
         style="fill:#ffffff;fill-opacity:1;fill-rule:nonzero;stroke:none"
         id="path30" />
      <path
         d="M 83.809,85.883 V 84.336 C 84.812,84.336 85.637,84.258 86.281,84.102 C 86.926,83.941 87.246,83.555 87.246,82.941 V 59.844 C 87.246,59.059 87.125,58.492 86.883,58.148 C 86.652,57.789 86.316,57.574 85.871,57.504 C 85.43,57.418 84.742,57.375 83.809,57.375 V 55.828 L 90.34,55.355 V 70.48 C 90.957,69.262 91.816,68.289 92.918,67.559 C 94.023,66.812 95.238,66.441 96.57,66.441 C 98.605,66.441 100.133,66.926 101.148,67.902 C 102.18,68.875 102.695,70.363 102.695,72.371 V 82.941 C 102.695,83.555 103.016,83.941 103.66,84.102 C 104.305,84.258 105.129,84.336 106.133,84.336 V 85.883 H 96.055 V 84.336 C 97.059,84.336 97.883,84.258 98.527,84.102 C 99.172,83.941 99.492,83.555 99.492,82.941 V 72.5 C 99.492,71.066 99.285,69.891 98.871,68.977 C 98.457,68.043 97.602,67.578 96.312,67.578 C 94.609,67.578 93.207,68.258 92.102,69.621 C 91.016,70.98 90.469,72.527 90.469,74.262 V 82.941 C 90.469,83.555 90.793,83.941 91.438,84.102 C 92.082,84.258 92.898,84.336 93.887,84.336 V 85.883 Z"
         style="fill:#ffffff;fill-opacity:1;fill-rule:nonzero;stroke:none"
         id="path32" />
      <path
         d="M 108.238,85.883 V 84.336 C 109.242,84.336 110.062,84.258 110.707,84.102 C 111.352,83.941 111.676,83.555 111.676,82.941 V 70.93 C 111.676,70.145 111.555,69.578 111.309,69.234 C 111.082,68.875 110.746,68.66 110.301,68.59 C 109.855,68.504 109.168,68.461 108.238,68.461 V 66.914 L 114.617,66.441 V 70.738 C 115.207,69.477 116.074,68.445 117.219,67.645 C 118.379,66.84 119.641,66.441 121,66.441 C 123.035,66.441 124.559,66.926 125.574,67.902 C 126.605,68.875 127.121,70.363 127.121,72.371 V 82.941 C 127.121,83.555 127.445,83.941 128.09,84.102 C 128.734,84.258 129.559,84.336 130.559,84.336 V 85.883 H 120.484 V 84.336 C 121.488,84.336 122.309,84.258 122.953,84.102 C 123.598,83.941 123.922,83.555 123.922,82.941 V 72.5 C 123.922,71.066 123.715,69.891 123.297,68.977 C 122.883,68.043 122.031,67.578 120.742,67.578 C 119.039,67.578 117.633,68.258 116.531,69.621 C 115.441,70.98 114.898,72.527 114.898,74.262 V 82.941 C 114.898,83.555 115.219,83.941 115.863,84.102 C 116.508,84.258 117.324,84.336 118.312,84.336 V 85.883 Z"
         style="fill:#ffffff;fill-opacity:1;fill-rule:nonzero;stroke:none"
         id="path34" />
      <g
         id="g36">
        <path
           d="M 141.73,141.73 H 283.464 V 283.464 H 141.73 Z"
           style="fill:#00649c;fill-opacity:1;fill-rule:nonzero;stroke:#00649c;stroke-width:2.00126;stroke-linecap:butt;stroke-linejoin:miter;stroke-miterlimit:4;stroke-dasharray:none;stroke-opacity:1"
           id="path38" />
      </g>
      <path
         d="M 183.145,227.625 V 226.078 C 186.164,226.078 187.676,225.613 187.676,224.684 V 200.512 C 187.676,199.582 186.164,199.117 183.145,199.117 V 197.57 H 207.398 L 208.625,207.645 H 207.355 C 207.156,205.797 206.883,204.344 206.539,203.285 C 206.211,202.211 205.723,201.371 205.078,200.77 C 204.434,200.156 203.566,199.727 202.48,199.48 C 201.406,199.238 199.922,199.117 198.031,199.117 H 194.016 C 193.484,199.117 193.07,199.137 192.77,199.18 C 192.48,199.223 192.246,199.352 192.059,199.566 C 191.875,199.77 191.781,200.082 191.781,200.512 V 211.836 H 194.895 C 196.398,211.836 197.504,211.707 198.203,211.449 C 198.906,211.176 199.387,210.691 199.645,209.988 C 199.914,209.285 200.051,208.184 200.051,206.68 H 201.32 V 218.516 H 200.051 C 200.051,217.012 199.914,215.91 199.645,215.207 C 199.387,214.508 198.906,214.027 198.203,213.77 C 197.504,213.496 196.398,213.359 194.895,213.359 H 191.781 V 224.684 C 191.781,225.613 193.656,226.078 197.41,226.078 V 227.625 Z"
         style="fill:#ffffff;fill-opacity:1;fill-rule:nonzero;stroke:none"
         id="path40" />
      <path
         d="M 211.824,227.625 V 226.078 C 214.848,226.078 216.359,225.613 216.359,224.684 V 200.512 C 216.359,199.582 214.848,199.117 211.824,199.117 V 197.57 H 224.996 V 199.117 C 221.973,199.117 220.461,199.582 220.461,200.512 V 211.211 H 233.438 V 200.512 C 233.438,199.582 231.926,199.117 228.906,199.117 V 197.57 H 242.055 V 199.117 C 239.047,199.117 237.543,199.582 237.543,200.512 V 224.684 C 237.543,225.613 239.047,226.078 242.055,226.078 V 227.625 H 228.906 V 226.078 C 231.926,226.078 233.438,225.613 233.438,224.684 V 212.758 H 220.461 V 224.684 C 220.461,225.613 221.973,226.078 224.996,226.078 V 227.625 Z"
         style="fill:#ffffff;fill-opacity:1;fill-rule:nonzero;stroke:none"
         id="path42" />
      <g
         id="g44"
         transform="scale(-1,1)">
        <g
           id="path46">
          <path
             style="color:#000000;fill:#8bb31d;stroke-width:2.00126;-inkscape-stroke:none"
             d="M -141.73,0 H -283.464 V 141.73 H -141.73 Z"
             id="path551" />
          <path
             style="color:#000000;fill:#8bb31d;-inkscape-stroke:none"
             d="M -284.46484,-1 V 142.73047 H -140.72852 V -1 H -141.73047 Z M -282.46289,1 H -142.73047 V 140.72852 H -282.46289 Z"
             id="path553" />
        </g>
      </g>
      <g
         id="g48">
        <path
           style="color:#000000;fill:#4d4d4d;-inkscape-stroke:none"
           d="M 180.66016,14.173828 C 166.99792,14.173828 155.9082,25.266573 155.9082,38.925781 C 155.9082,52.587892 166.99788,63.683594 180.66016,63.683594 C 187.224,63.683594 193.52134,61.073329 198.16406,56.431641 C 202.80591,51.789795 205.41211,45.492442 205.41211,38.925781 C 205.41211,32.362021 202.80591,26.063721 198.16406,21.421875 C 193.5213,16.780145 187.22392,14.173828 180.66016,14.173828 Z M 180.66016,15.773438 C 186.80038,15.773438 192.68998,18.210473 197.0332,22.552734 C 201.37535,26.89488 203.8125,32.785555 203.8125,38.925781 C 203.8125,45.069108 201.37535,50.958636 197.0332,55.300781 C 192.68993,59.643084 186.8003,62.083984 180.66016,62.083984 C 167.86245,62.083984 157.50586,51.723644 157.50586,38.925781 C 157.50586,26.131016 167.86241,15.773438 180.66016,15.773438 Z"
           id="path50" />
      </g>
      <g
         id="g52">
        <path
           style="color:#000000;fill:#4d4d4d;-inkscape-stroke:none"
           d="M 244.53906,14.173828 C 230.87683,14.173828 219.7832,25.266411 219.7832,38.925781 C 219.7832,52.588053 230.87679,63.683594 244.53906,63.683594 C 258.19843,63.683594 269.29102,52.588013 269.29102,38.925781 C 269.29102,25.266452 258.19839,14.173828 244.53906,14.173828 Z M 244.53906,15.773438 C 257.33371,15.773438 267.69141,26.131137 267.69141,38.925781 C 267.69141,51.723523 257.33367,62.083984 244.53906,62.083984 C 231.74136,62.083984 221.38086,51.723483 221.38086,38.925781 C 221.38086,26.131177 231.74132,15.773438 244.53906,15.773438 Z"
           id="path54" />
      </g>
      <g
         id="g56">
        <path
           style="color:#000000;fill:#4d4d4d;-inkscape-stroke:none"
           d="M 180.66016,78.052734 C 166.99809,78.052734 155.9082,89.14161 155.9082,102.80469 C 155.9082,116.4668 166.99805,127.55859 180.66016,127.55859 C 187.224,127.55859 193.52134,124.94833 198.16406,120.30664 C 202.80591,115.6648 205.41211,109.36748 205.41211,102.80469 C 205.41211,96.240927 202.80591,89.942627 198.16406,85.300781 C 193.5213,80.659051 187.22392,78.052734 180.66016,78.052734 Z M 180.66016,79.652344 C 186.80038,79.652344 192.68998,82.08938 197.0332,86.431641 C 201.37535,90.773786 203.8125,96.664461 203.8125,102.80469 C 203.8125,108.94388 201.37535,114.83364 197.0332,119.17578 C 192.68993,123.51808 186.8003,125.95898 180.66016,125.95898 C 167.86229,125.95898 157.50586,115.60255 157.50586,102.80469 C 157.50586,90.005792 167.86225,79.652344 180.66016,79.652344 Z"
           id="path58" />
      </g>
      <g
         id="g60">
        <path
           style="color:#000000;fill:#4d4d4d;-inkscape-stroke:none"
           d="M 244.53906,78.052734 C 230.87699,78.052734 219.7832,89.141448 219.7832,102.80469 C 219.7832,116.46696 230.87695,127.55859 244.53906,127.55859 C 258.19827,127.55859 269.29102,116.46692 269.29102,102.80469 C 269.29102,89.141489 258.19823,78.052734 244.53906,78.052734 Z M 244.53906,79.652344 C 257.33387,79.652344 267.69141,90.005913 267.69141,102.80469 C 267.69141,115.60243 257.33383,125.95898 244.53906,125.95898 C 231.7412,125.95898 221.38086,115.60239 221.38086,102.80469 C 221.38086,90.005953 231.74116,79.652344 244.53906,79.652344 Z"
           id="path62" />
      </g>
      <g
         id="g64">
        <g
           id="path66">
          <path
             style="color:#000000;fill:#ffffff;stroke-width:1.59946;-inkscape-stroke:none"
             d="M 180.66,43.719 C 204.613,59.688 204.613,82.043 180.66,98.016 V 102.805 H 185.449 C 201.418,78.852 223.777,78.852 239.746,102.805 H 244.539 V 98.016 C 220.582,82.043 220.934,59.496 244.539,43.719 V 38.926 H 239.746 C 223.777,62.883 201.531,62.668 185.449,38.926 H 180.66 Z"
             id="path639" />
          <path
             style="color:#000000;fill:#ffffff;-inkscape-stroke:none"
             d="M 179.85937,38.126953 V 44.146484 L 180.2168,44.384766 C 192.04997,52.273716 197.82422,61.616954 197.82422,70.865234 C 197.82422,80.113515 192.05001,89.460614 180.2168,97.351562 L 179.85937,97.587891 V 103.60547 H 185.87695 L 186.11523,103.24805 C 194.00417,91.414895 203.34886,85.640625 212.59766,85.640625 C 221.84645,85.640625 231.19115,91.414895 239.08008,103.24805 L 239.31836,103.60547 H 245.33789 V 97.587891 L 244.98242,97.351562 C 233.14994,89.462421 227.46142,80.072379 227.50391,70.796875 C 227.54639,61.521371 233.32473,52.176476 244.98242,44.384766 L 245.33789,44.146484 V 38.126953 H 239.31836 L 239.08008,38.482422 C 231.19126,50.317382 221.87821,56.039614 212.64258,56.013672 C 203.40695,55.98773 194.05693,50.206719 186.11133,38.476562 L 185.87305,38.126953 Z M 181.45898,39.726562 H 185.07031 C 193.15305,51.477497 202.84646,57.585782 212.63672,57.613281 C 222.42581,57.640778 232.0996,51.580173 240.12695,39.726562 H 243.74023 V 43.337891 C 232.05473,51.27394 225.9493,60.967069 225.9043,70.791016 C 225.85929,80.615514 231.88398,90.363656 243.74023,98.396484 V 102.00586 H 240.12891 C 232.10075,90.151409 222.40242,84.041016 212.59766,84.041016 C 202.7929,84.041016 193.09456,90.151409 185.06641,102.00586 H 181.45898 V 98.398437 C 193.31338,90.368362 199.42383,80.669518 199.42383,70.865234 C 199.42383,61.060951 193.31341,51.364057 181.45898,43.335937 Z"
             id="path641" />
        </g>
      </g>
      <g
         id="g68">
        <path
           d="M 185.895,38.926 C 185.895,41.82 183.551,44.164 180.66,44.164 C 177.77,44.164 175.422,41.82 175.422,38.926 C 175.422,36.035 177.77,33.691 180.66,33.691 C 183.551,33.691 185.895,36.035 185.895,38.926 Z"
           style="fill:#4d4d4d;fill-opacity:1;fill-rule:nonzero;stroke:#4d4d4d;stroke-width:1.59946;stroke-linecap:butt;stroke-linejoin:miter;stroke-miterlimit:4;stroke-dasharray:none;stroke-opacity:1"
           id="path70" />
      </g>
      <g
         id="g72">
        <path
           d="M 249.773,38.926 C 249.773,41.82 247.43,44.164 244.539,44.164 C 241.645,44.164 239.301,41.82 239.301,38.926 C 239.301,36.035 241.645,33.691 244.539,33.691 C 247.43,33.691 249.773,36.035 249.773,38.926 Z"
           style="fill:#4d4d4d;fill-opacity:1;fill-rule:nonzero;stroke:#4d4d4d;stroke-width:1.59946;stroke-linecap:butt;stroke-linejoin:miter;stroke-miterlimit:4;stroke-dasharray:none;stroke-opacity:1"
           id="path74" />
      </g>
      <g
         id="g76">
        <path
           d="M 249.773,102.805 C 249.773,105.695 247.43,108.043 244.539,108.043 C 241.645,108.043 239.301,105.695 239.301,102.805 C 239.301,99.914 241.645,97.57 244.539,97.57 C 247.43,97.57 249.773,99.914 249.773,102.805 Z"
           style="fill:#4d4d4d;fill-opacity:1;fill-rule:nonzero;stroke:#4d4d4d;stroke-width:1.59946;stroke-linecap:butt;stroke-linejoin:miter;stroke-miterlimit:4;stroke-dasharray:none;stroke-opacity:1"
           id="path78" />
      </g>
      <g
         id="g80">
        <path
           d="M 185.895,102.805 C 185.895,105.695 183.551,108.043 180.66,108.043 C 177.77,108.043 175.422,105.695 175.422,102.805 C 175.422,99.914 177.77,97.57 180.66,97.57 C 183.551,97.57 185.895,99.914 185.895,102.805 Z"
           style="fill:#4d4d4d;fill-opacity:1;fill-rule:nonzero;stroke:#4d4d4d;stroke-width:1.59946;stroke-linecap:butt;stroke-linejoin:miter;stroke-miterlimit:4;stroke-dasharray:none;stroke-opacity:1"
           id="path82" />
      </g>
      <g
         id="g84">
        <g
           id="path86">
          <path
             style="color:#000000;fill:#4d4d4d;stroke-width:1.16101;-inkscape-stroke:none"
             d="M 65.07,194.031 H 70.867 V 225.41 H 65.07 Z"
             id="path565" />
          <path
             style="color:#000000;fill:#4d4d4d;-inkscape-stroke:none"
             d="M 64.490234,193.45117 V 194.03125 V 225.99023 H 71.447266 V 193.45117 Z M 65.650391,194.61133 H 70.287109 V 224.83008 H 65.650391 Z"
             id="path567" />
        </g>
      </g>
      <g
         id="g88">
        <g
           id="path90">
          <path
             style="color:#000000;fill:#ffffff;fill-rule:evenodd;stroke-width:0.987695;-inkscape-stroke:none"
             d="M 93.543,218.27 L 96.379,233.691 H 34.016 L 36.852,218.27 Z"
             id="path601" />
          <path
             style="color:#000000;fill:#ffffff;fill-rule:evenodd;-inkscape-stroke:none"
             d="M 36.441406,217.77539 L 33.423828,234.18555 H 96.972656 L 93.955078,217.77539 H 93.542969 Z M 37.263672,218.76367 H 93.130859 L 95.785156,233.19727 H 34.609375 Z"
             id="path603" />
        </g>
      </g>
      <g
         id="g92">
        <path
           d="M 46.523,214.113 H 48.843 V 218.75 H 46.523 Z"
           style="fill:#ffffff;fill-opacity:1;fill-rule:nonzero;stroke:#ffffff;stroke-width:1.16101;stroke-linecap:butt;stroke-linejoin:miter;stroke-miterlimit:4;stroke-dasharray:none;stroke-opacity:1"
           id="path94" />
      </g>
      <g
         id="g96"
         transform="matrix(1,0.267949,-0.267949,1,0,0)">
        <g
           id="path98">
          <path
             style="color:#000000;fill:#4d4d4d;stroke-width:1.12145;-inkscape-stroke:none"
             d="M 135.421,130.429 L 137.66,130.431 V 134.907 L 135.419,134.91 Z"
             id="path595" />
          <path
             style="color:#000000;fill:#4d4d4d;-inkscape-stroke:none"
             d="M 134.86133,129.86719 L 134.85937,130.42969 L 134.85742,135.4707 L 138.2207,135.4668 V 129.87109 Z M 135.98242,130.99023 L 137.09961,130.99219 V 134.34766 L 135.98047,134.34961 Z"
             id="path597" />
        </g>
      </g>
      <g
         id="g100"
         transform="matrix(1,0.267949,-0.267949,1,0,0)">
        <g
           id="path102">
          <path
             style="color:#000000;fill:#4d4d4d;stroke-width:1.12145;-inkscape-stroke:none"
             d="M 118.624,124.832 L 135.421,124.831 L 135.417,136.028 L 118.624,136.027 Z"
             id="path583" />
          <path
             style="color:#000000;fill:#4d4d4d;-inkscape-stroke:none"
             d="M 135.98242,124.26953 L 118.0625,124.27148 V 124.83203 V 136.58789 H 135.97656 Z M 119.18555,125.39258 H 134.85937 L 134.85742,135.4668 H 119.18555 Z"
             id="path585" />
        </g>
      </g>
      <g
         id="g104"
         transform="matrix(1,1,-1,1,0,0)">
        <g
           id="path106">
          <path
             style="color:#000000;fill:#4d4d4d;stroke-width:0.820955;-inkscape-stroke:none"
             d="M 128.973,39.312 H 133.07 V 63.902 H 128.973 Z"
             id="path571" />
          <path
             style="color:#000000;fill:#4d4d4d;-inkscape-stroke:none"
             d="M 128.5625,38.902344 V 39.3125 V 64.3125 H 133.48047 V 38.902344 Z M 129.38281,39.722656 H 132.66016 V 63.492187 H 129.38281 Z"
             id="path573" />
        </g>
      </g>
      <g
         id="g108">
        <path
           d="M 73.766,194.031 C 73.766,197.234 71.168,199.828 67.969,199.828 C 66.434,199.828 64.957,199.219 63.871,198.133 C 62.785,197.043 62.172,195.57 62.172,194.031 C 62.172,192.496 62.785,191.02 63.871,189.934 C 64.957,188.848 66.434,188.238 67.969,188.238 C 71.168,188.238 73.766,190.832 73.766,194.031 Z"
           style="fill:#4d4d4d;fill-opacity:1;fill-rule:nonzero;stroke:#4d4d4d;stroke-width:1.16101;stroke-linecap:butt;stroke-linejoin:miter;stroke-miterlimit:4;stroke-dasharray:none;stroke-opacity:1"
           id="path110" />
      </g>
      <g
         id="g112">
        <g
           id="path114">
          <path
             style="color:#000000;fill:#4d4d4d;stroke-width:1.16101;-inkscape-stroke:none"
             d="M 72.172,194.031 C 72.172,196.352 70.289,198.234 67.969,198.234 C 65.648,198.234 63.766,196.352 63.766,194.031 C 63.766,191.711 65.648,189.832 67.969,189.832 C 70.289,189.832 72.172,191.711 72.172,194.031 Z"
             id="path577" />
          <path
             style="color:#000000;fill:#4d4d4d;-inkscape-stroke:none"
             d="M 67.96875,189.25195 C 65.334448,189.25195 63.185547,191.39731 63.185547,194.03125 C 63.185547,196.66605 65.333948,198.81445 67.96875,198.81445 C 70.602687,198.81445 72.751953,196.66622 72.751953,194.03125 C 72.751953,191.39715 70.602187,189.25195 67.96875,189.25195 Z M 67.96875,190.41211 C 69.975309,190.41211 71.591797,192.02536 71.591797,194.03125 C 71.591797,196.03828 69.974808,197.6543 67.96875,197.6543 C 65.961557,197.6543 64.345703,196.03844 64.345703,194.03125 C 64.345703,192.02519 65.961056,190.41211 67.96875,190.41211 Z"
             id="path579" />
        </g>
      </g>
      <g
         id="g116">
        <g
           id="path118">
          <path
             style="color:#000000;fill:#4d4d4d;stroke-width:1.16101;-inkscape-stroke:none"
             d="M 96.367,170.848 C 96.367,172.387 95.758,173.859 94.672,174.949 C 93.586,176.035 92.109,176.645 90.574,176.645 C 89.035,176.645 87.562,176.035 86.477,174.949 C 85.387,173.859 84.777,172.387 84.777,170.848 C 84.777,167.648 87.371,165.055 90.574,165.055 C 92.109,165.055 93.586,165.664 94.672,166.75 C 95.758,167.836 96.367,169.312 96.367,170.848 Z"
             id="path589" />
          <path
             style="color:#000000;fill:#4d4d4d;-inkscape-stroke:none"
             d="M 90.574219,164.47461 C 87.057922,164.47461 84.197266,167.33395 84.197266,170.84766 C 84.197266,172.54005 84.868202,174.16117 86.066406,175.35937 C 87.260256,176.55433 88.881827,177.22461 90.574219,177.22461 C 92.26301,177.22461 93.886798,176.55461 95.082031,175.35937 H 95.083984 C 96.277833,174.16113 96.947266,172.5398 96.947266,170.84766 C 96.947266,169.15822 96.277264,167.53508 95.082031,166.33984 C 93.886672,165.14448 92.262758,164.47461 90.574219,164.47461 Z M 90.574219,165.63477 C 91.955677,165.63477 93.28508,166.18352 94.261719,167.16016 C 95.238483,168.13692 95.787109,169.4651 95.787109,170.84766 C 95.787109,172.23351 95.239868,173.55731 94.261719,174.53906 C 93.284954,175.51583 91.955425,176.06445 90.574219,176.06445 C 89.188613,176.06445 87.862867,175.51611 86.886719,174.53906 C 85.904926,173.55727 85.357422,172.23326 85.357422,170.84766 C 85.357422,167.96137 87.684522,165.63477 90.574219,165.63477 Z"
             id="path591" />
        </g>
      </g>
      <g
         id="g120">
        <path
           d="M 94.773,170.848 C 94.773,173.168 92.895,175.051 90.574,175.051 C 88.254,175.051 86.371,173.168 86.371,170.848 C 86.371,168.527 88.254,166.648 90.574,166.648 C 92.895,166.648 94.773,168.527 94.773,170.848 Z"
           style="fill:#4d4d4d;fill-opacity:1;fill-rule:nonzero;stroke:#4d4d4d;stroke-width:1.16101;stroke-linecap:butt;stroke-linejoin:miter;stroke-miterlimit:4;stroke-dasharray:none;stroke-opacity:1"
           id="path122" />
      </g>
      <g
         id="g124"
         transform="rotate(90)">
        <g
           id="path126">
          <path
             style="color:#000000;fill:#ffffff;stroke-width:1.16101;-inkscape-stroke:none"
             d="M 214.113,-43.625 C 213.285,-43.625 212.52,-44.398 212.105,-45.656 C 211.691,-46.91 211.691,-48.457 212.105,-49.711 C 212.52,-50.965 213.285,-51.738 214.113,-51.738 Z"
             id="path611" />
          <path
             style="color:#000000;fill:#ffffff;-inkscape-stroke:none"
             d="M 214.11328,-52.318359 C 213.51863,-52.318359 212.9689,-52.035563 212.54102,-51.603516 C 212.11313,-51.171468 211.78444,-50.586806 211.55469,-49.892578 C 211.09613,-48.503616 211.09613,-46.863571 211.55469,-45.474609 C 211.78435,-44.778425 212.11309,-44.192478 212.54102,-43.759766 C 212.96894,-43.327053 213.51863,-43.044922 214.11328,-43.044922 H 214.69336 V -43.625 V -52.318359 Z M 213.5332,-50.869141 V -44.494141 C 213.47597,-44.53813 213.42615,-44.516552 213.36719,-44.576172 C 213.10187,-44.844459 212.84159,-45.276077 212.65625,-45.837891 C 212.28681,-46.956926 212.28681,-48.410261 212.65625,-49.529297 C 212.8415,-50.089067 213.10182,-50.519157 213.36719,-50.787109 C 213.42616,-50.846655 213.47594,-50.825186 213.5332,-50.869141 Z"
             id="path613" />
        </g>
      </g>
      <g
         id="g128">
        <g
           id="path130">
          <path
             style="color:#000000;fill:#ffffff;stroke-width:1.16101;-inkscape-stroke:none"
             d="M 44.207,214.113 H 51.16 V 218.75 H 44.207 Z"
             id="path617" />
          <path
             style="color:#000000;fill:#ffffff;-inkscape-stroke:none"
             d="M 43.626953,213.5332 V 214.11328 V 219.33008 H 51.740234 V 213.5332 Z M 44.787109,214.69336 H 50.580078 V 218.16992 H 44.787109 Z"
             id="path619" />
        </g>
      </g>
      <g
         id="g132">
        <path
           d="M 46.523,218.75 V 214.113"
           style="fill:none;stroke:#ffffff;stroke-width:1.15918;stroke-linecap:butt;stroke-linejoin:miter;stroke-miterlimit:4;stroke-dasharray:none;stroke-opacity:1"
           id="path134" />
      </g>
      <g
         id="g136">
        <path
           style="color:#000000;fill:#ffffff;-inkscape-stroke:none"
           d="M 48.263672,214.11328 V 218.75 H 49.423828 V 214.11328 Z"
           id="path138" />
      </g>
      <g
         id="g140">
        <g
           id="path142">
          <path
             style="color:#000000;fill:#4d4d4d;stroke-width:1.16101;-inkscape-stroke:none"
             d="M 43.285,243.781 C 43.285,245.484 42.605,247.121 41.398,248.328 C 40.191,249.535 38.559,250.215 36.852,250.215 C 35.145,250.215 33.508,249.535 32.301,248.328 C 31.094,247.121 30.418,245.484 30.418,243.781 C 30.418,242.074 31.094,240.438 32.301,239.23 C 33.508,238.023 35.145,237.348 36.852,237.348 C 38.559,237.348 40.191,238.023 41.398,239.23 C 42.605,240.438 43.285,242.074 43.285,243.781 Z"
             id="path501" />
          <path
             style="color:#000000;fill:#4d4d4d;-inkscape-stroke:none"
             d="M 36.851562,236.76758 C 34.991531,236.76758 33.206677,237.50426 31.890625,238.82031 C 30.574999,240.13703 29.837891,241.92099 29.837891,243.78125 C 29.837891,245.63787 30.574687,247.42234 31.890625,248.73828 C 33.20611,250.05377 34.990398,250.79492 36.851562,250.79492 C 38.712727,250.79492 40.493676,250.0532 41.808594,248.73828 C 43.124079,247.4228 43.865234,245.63878 43.865234,243.78125 C 43.865234,241.92009 43.123767,240.13658 41.808594,238.82031 C 40.493109,237.50483 38.711594,236.76758 36.851562,236.76758 Z M 36.851562,237.92773 C 38.405528,237.92773 39.889769,238.54211 40.988281,239.64062 C 42.087106,240.74036 42.705078,242.22842 42.705078,243.78125 C 42.705078,245.32972 42.086794,246.81946 40.988281,247.91797 C 39.889202,249.01705 38.404394,249.63477 36.851562,249.63477 C 35.298731,249.63477 33.80945,249.01648 32.710937,247.91797 C 31.612878,246.81991 30.998047,245.33063 30.998047,243.78125 C 30.998047,242.22751 31.612566,240.73991 32.710937,239.64062 C 33.808883,238.54268 35.297597,237.92773 36.851562,237.92773 Z"
             id="path503" />
        </g>
      </g>
      <g
         id="g144">
        <g
           id="path146">
          <path
             style="color:#000000;fill:#4d4d4d;stroke-width:0.529362;-inkscape-stroke:none"
             d="M 45.254,254.648 C 45.254,256.27 43.941,257.582 42.32,257.582 C 40.703,257.582 39.387,256.27 39.387,254.648 C 39.387,253.027 40.703,251.715 42.32,251.715 C 43.941,251.715 45.254,253.027 45.254,254.648 Z"
             id="path507" />
          <path
             style="color:#000000;fill:#4d4d4d;-inkscape-stroke:none"
             d="M 42.320312,251.45117 C 40.560143,251.45117 39.123047,252.88419 39.123047,254.64844 C 39.123047,256.4136 40.560143,257.84766 42.320312,257.84766 C 44.084129,257.84766 45.519531,256.41327 45.519531,254.64844 C 45.519531,252.88451 44.084129,251.45117 42.320312,251.45117 Z M 42.320312,251.98047 C 43.798493,251.98047 44.990234,253.17037 44.990234,254.64844 C 44.990234,256.1276 43.798493,257.31641 42.320312,257.31641 C 40.846485,257.31641 39.652344,256.12727 39.652344,254.64844 C 39.652344,253.17069 40.846485,251.98047 42.320312,251.98047 Z"
             id="path509" />
        </g>
      </g>
      <g
         id="g148"
         transform="scale(-1,1)">
        <g
           id="path150">
          <path
             style="color:#000000;fill:#4d4d4d;stroke-width:1.16101;-inkscape-stroke:none"
             d="M -89.945,243.781 C -89.945,245.484 -90.621,247.121 -91.828,248.328 C -93.035,249.535 -94.672,250.215 -96.379,250.215 C -98.086,250.215 -99.723,249.535 -100.926,248.328 C -102.133,247.121 -102.812,245.484 -102.812,243.781 C -102.812,242.074 -102.133,240.438 -100.926,239.23 C -99.723,238.023 -98.086,237.348 -96.379,237.348 C -94.672,237.348 -93.035,238.023 -91.828,239.23 C -90.621,240.438 -89.945,242.074 -89.945,243.781 Z"
             id="path531" />
          <path
             style="color:#000000;fill:#4d4d4d;-inkscape-stroke:none"
             d="M -96.378906,236.76758 C -98.238385,236.76758 -100.02356,237.5042 -101.33594,238.82031 C -102.65122,240.13669 -103.39258,241.92031 -103.39258,243.78125 C -103.39258,245.63855 -102.65154,247.42268 -101.33594,248.73828 C -100.02413,250.05383 -98.239519,250.79492 -96.378906,250.79492 C -94.517742,250.79492 -92.733454,250.05377 -91.417969,248.73828 C -90.10203,247.42234 -89.365234,245.63787 -89.365234,243.78125 C -89.365234,241.92099 -90.102342,240.13703 -91.417969,238.82031 C -92.73402,237.50426 -94.518875,236.76758 -96.378906,236.76758 Z M -96.378906,237.92773 C -94.824941,237.92773 -93.336227,238.54268 -92.238281,239.64062 C -91.13991,240.73991 -90.525391,242.22751 -90.525391,243.78125 C -90.525391,245.33063 -91.140222,246.81991 -92.238281,247.91797 C -93.336794,249.01648 -94.826074,249.63477 -96.378906,249.63477 C -97.931738,249.63477 -99.421547,249.01568 -100.51563,247.91797 C -101.61402,246.81957 -102.23242,245.32995 -102.23242,243.78125 C -102.23242,242.22819 -101.61434,240.74025 -100.51563,239.64062 C -99.422113,238.54348 -97.932872,237.92773 -96.378906,237.92773 Z"
             id="path533" />
        </g>
      </g>
      <g
         id="g152">
        <g
           id="path154">
          <path
             style="color:#000000;fill:#4d4d4d;stroke-width:0.529362;-inkscape-stroke:none"
             d="M 69.547,254.648 C 69.547,256.27 68.234,257.582 66.613,257.582 C 64.992,257.582 63.68,256.27 63.68,254.648 C 63.68,253.027 64.992,251.715 66.613,251.715 C 68.234,251.715 69.547,253.027 69.547,254.648 Z"
             id="path519" />
          <path
             style="color:#000000;fill:#4d4d4d;-inkscape-stroke:none"
             d="M 66.613281,251.45117 C 64.849465,251.45117 63.416016,252.88462 63.416016,254.64844 C 63.416016,256.41317 64.849465,257.84766 66.613281,257.84766 C 68.377097,257.84766 69.8125,256.41327 69.8125,254.64844 C 69.8125,252.88451 68.377097,251.45117 66.613281,251.45117 Z M 66.613281,251.98047 C 68.091462,251.98047 69.283203,253.17037 69.283203,254.64844 C 69.283203,256.1276 68.091462,257.31641 66.613281,257.31641 C 65.135101,257.31641 63.945313,256.12771 63.945312,254.64844 C 63.945313,253.17026 65.135101,251.98047 66.613281,251.98047 Z"
             id="path521" />
        </g>
      </g>
      <g
         id="g156">
        <g
           id="path158">
          <path
             style="color:#000000;fill:#4d4d4d;stroke-width:0.529362;-inkscape-stroke:none"
             d="M 77.07,254.648 C 77.07,256.27 75.758,257.582 74.137,257.582 C 72.52,257.582 71.203,256.27 71.203,254.648 C 71.203,253.027 72.52,251.715 74.137,251.715 C 75.758,251.715 77.07,253.027 77.07,254.648 Z"
             id="path525" />
          <path
             style="color:#000000;fill:#4d4d4d;-inkscape-stroke:none"
             d="M 74.136719,251.45117 C 72.376549,251.45117 70.9375,252.88408 70.9375,254.64844 C 70.9375,256.41371 72.376549,257.84766 74.136719,257.84766 C 75.900535,257.84766 77.333984,256.41317 77.333984,254.64844 C 77.333984,252.88462 75.900535,251.45117 74.136719,251.45117 Z M 74.136719,251.98047 C 75.614899,251.98047 76.804687,253.17026 76.804687,254.64844 C 76.804687,256.12771 75.614899,257.31641 74.136719,257.31641 C 72.662891,257.31641 71.466797,256.12716 71.466797,254.64844 C 71.466797,253.1708 72.662891,251.98047 74.136719,251.98047 Z"
             id="path527" />
        </g>
      </g>
      <g
         id="g160">
        <g
           id="path162">
          <path
             style="color:#000000;fill:#4d4d4d;stroke-width:0.529362;-inkscape-stroke:none"
             d="M 62.023,254.648 C 62.023,256.27 60.711,257.582 59.09,257.582 C 57.469,257.582 56.156,256.27 56.156,254.648 C 56.156,253.027 57.469,251.715 59.09,251.715 C 60.711,251.715 62.023,253.027 62.023,254.648 Z"
             id="path513" />
          <path
             style="color:#000000;fill:#4d4d4d;-inkscape-stroke:none"
             d="M 59.089844,251.45117 C 57.326028,251.45117 55.890625,252.88451 55.890625,254.64844 C 55.890625,256.41327 57.326028,257.84766 59.089844,257.84766 C 60.85366,257.84766 62.287109,256.41317 62.287109,254.64844 C 62.287109,252.88462 60.85366,251.45117 59.089844,251.45117 Z M 59.089844,251.98047 C 60.568024,251.98047 61.757812,253.17026 61.757812,254.64844 C 61.757812,256.12771 60.568024,257.31641 59.089844,257.31641 C 57.611663,257.31641 56.419922,256.1276 56.419922,254.64844 C 56.419922,253.17037 57.611663,251.98047 59.089844,251.98047 Z"
             id="path515" />
        </g>
      </g>
      <g
         id="g164">
        <path
           style="color:#000000;fill:#4d4d4d;-inkscape-stroke:none"
           d="M 36.851562,231.71484 C 31.976849,231.71484 27.567773,234.65771 25.705078,239.16211 C 23.839422,243.66501 24.873364,248.86273 28.316406,252.31055 H 28.318359 L 36.490234,260.47852 C 38.036963,262.03016 40.138155,262.89844 42.320312,262.89844 H 90.90625 C 93.091147,262.89844 95.190558,262.02788 96.736328,260.47852 L 104.9082,252.31055 C 108.35452,248.86303 109.39045,243.66539 107.52344,239.16211 C 105.65764,234.65887 101.2504,231.71484 96.378906,231.71484 Z M 36.851562,235.66602 H 96.378906 C 99.663407,235.66602 102.61485,237.63708 103.87305,240.67383 H 103.875 C 105.13399,243.71054 104.44091,247.1911 102.11523,249.51758 L 93.941406,257.68555 V 257.6875 C 93.135473,258.49617 92.04788,258.94727 90.90625,258.94727 H 42.320312 C 41.183941,258.94727 40.090084,258.49389 39.287109,257.6875 L 39.285156,257.68555 L 31.113281,249.51758 C 28.790329,247.1914 28.097128,243.71092 29.355469,240.67383 H 29.357422 C 30.612724,237.63824 33.562284,235.66602 36.851562,235.66602 Z"
           id="path166" />
      </g>
      <g
         id="g168"
         transform="scale(-1,1)">
        <g
           id="path170">
          <path
             style="color:#000000;fill:#4d4d4d;stroke-width:0.529362;-inkscape-stroke:none"
             d="M -87.973,254.648 C -87.973,256.27 -89.285,257.582 -90.906,257.582 C -92.527,257.582 -93.84,256.27 -93.84,254.648 C -93.84,253.027 -92.527,251.715 -90.906,251.715 C -89.285,251.715 -87.973,253.027 -87.973,254.648 Z"
             id="path537" />
          <path
             style="color:#000000;fill:#4d4d4d;-inkscape-stroke:none"
             d="M -90.90625,251.45117 C -92.670066,251.45117 -94.105469,252.88451 -94.105469,254.64844 C -94.105469,256.41327 -92.670066,257.84766 -90.90625,257.84766 C -89.142434,257.84766 -87.708984,256.41317 -87.708984,254.64844 C -87.708984,252.88462 -89.142434,251.45117 -90.90625,251.45117 Z M -90.90625,251.98047 C -89.428069,251.98047 -88.238281,253.17026 -88.238281,254.64844 C -88.238281,256.12771 -89.428069,257.31641 -90.90625,257.31641 C -92.384431,257.31641 -93.576172,256.1276 -93.576172,254.64844 C -93.576172,253.17037 -92.384431,251.98047 -90.90625,251.98047 Z"
             id="path539" />
        </g>
      </g>
    </g>
  </g>
</svg>
